<svg width="512" height="512" viewBox="0 0 512 512" fill="none"  xmlns="http://www.w3.org/2000/svg">
<mask id="mask0_128_776" style="mask-type:alpha" maskUnits="userSpaceOnUse" x="0" y="0" width="512" height="512">
<rect width="512" height="512" rx="102.4" fill="#ffffff"/>
</mask>

<g mask="url(#mask0_128_776)">
<path d="M170.799 554.562C165.209 567.917 157.5 579.639 147.672 589.726C137.844 599.813 126.933 607.579 114.939 613.022C102.944 618.465 90.2507 621.56 76.8583 622.308C63.599 622.737 50.4504 620.224 37.4127 614.767C25.011 609.576 13.4337 602.861 2.68094 594.624C-7.93872 586.068 -17.1533 577.727 -24.9628 569.6C-34.0961 560.172 -42.3273 550.374 -49.6562 540.206L-25.0317 513.516C-16.2977 523.898 -7.54895 533.352 1.21455 541.879C8.83918 549.554 17.0739 557.112 25.9187 564.551C34.8966 571.672 43.3605 576.896 51.3103 580.224C59.5781 583.684 68.0345 585.355 76.6793 585.236C85.4572 584.8 93.588 582.784 101.072 579.19C108.873 575.729 115.802 570.781 121.859 564.347C128.233 558.046 133.283 550.444 137.01 541.54C140.737 532.636 141.798 524.298 140.193 516.526C138.588 508.754 135.245 501.563 130.164 494.952C125.534 488.156 119.711 481.981 112.692 476.428C105.992 471.007 99.2515 466.131 92.4701 461.797C81.1849 454.832 71.2937 446.768 62.7964 437.606C54.4321 428.125 47.8723 417.906 43.1168 406.946C38.6793 396.12 36.2052 384.621 35.6944 372.449C35.6348 360.092 38.3335 347.394 43.7905 334.357C49.3806 321.001 57.0229 309.438 66.7174 299.669C76.412 289.9 87.19 282.452 99.0514 277.327C111.046 271.884 123.514 268.881 136.455 268.319C149.848 267.571 162.745 269.793 175.147 274.984C182.778 278.178 190.329 282.459 197.798 287.828C205.401 292.878 212.393 298.047 218.775 303.334C225.978 309.339 233.048 315.661 239.985 322.302L215.915 350.345C209.799 344.422 203.55 338.817 197.168 333.529C191.606 328.959 185.502 324.349 178.853 319.698C172.656 314.862 166.378 311.113 160.018 308.451C152.068 305.123 143.863 303.744 135.403 304.314C126.943 304.884 118.971 306.966 111.488 310.56C104.004 314.154 97.234 319.169 91.1777 325.603C85.2545 331.718 80.6292 338.751 77.3017 346.701C73.4419 355.923 71.9558 364.83 72.8436 373.423C73.8644 381.699 76.2386 389.419 79.966 396.585C84.0114 403.883 88.9331 410.428 94.7311 416.218C100.529 422.008 106.342 426.87 112.169 430.804C124.275 438.487 135.187 446.791 144.905 455.716C154.622 464.642 162.217 474.174 167.69 484.312C173.481 494.584 176.764 505.488 177.541 517.024C178.636 528.693 176.389 541.206 170.799 554.562Z" fill="white"/>
<path d="M320.264 364.872C314.674 378.228 306.965 389.949 297.137 400.036C287.309 410.124 276.398 417.889 264.404 423.332C252.409 428.775 239.716 431.871 226.323 432.618C213.064 433.048 199.915 430.534 186.878 425.077C174.476 419.886 162.899 413.172 152.146 404.934C141.526 396.379 132.312 388.037 124.502 379.91C115.369 370.482 107.138 360.684 99.8087 350.516L124.433 323.826C133.167 334.209 141.916 343.663 150.679 352.189C158.304 359.865 166.539 367.422 175.384 374.861C184.362 381.982 192.825 387.206 200.775 390.534C209.043 393.994 217.499 395.665 226.144 395.547C234.922 395.11 243.053 393.095 250.537 389.5C258.338 386.039 265.267 381.092 271.323 374.658C277.698 368.357 282.748 360.754 286.475 351.851C290.202 342.947 291.263 334.609 289.658 326.837C288.053 319.064 284.71 311.873 279.629 305.262C274.999 298.466 269.176 292.291 262.157 286.738C255.457 281.318 248.716 276.441 241.935 272.108C230.65 265.142 220.759 257.078 212.261 247.916C203.897 238.436 197.337 228.216 192.582 217.257C188.144 206.431 185.67 194.931 185.159 182.759C185.1 170.402 187.798 157.705 193.255 144.667C198.846 131.311 206.488 119.749 216.182 109.979C225.877 100.21 236.655 92.7629 248.516 87.6376C260.511 82.1943 272.979 79.1914 285.92 78.6289C299.313 77.8814 312.21 80.1031 324.611 85.2939C332.243 88.4883 339.794 92.7697 347.263 98.1382C354.865 103.189 361.858 108.358 368.24 113.645C375.443 119.649 382.513 125.972 389.45 132.612L365.38 160.655C359.264 154.732 353.015 149.127 346.633 143.84C341.071 139.27 334.967 134.659 328.318 130.008C322.121 125.172 315.842 121.423 309.483 118.761C301.533 115.433 293.328 114.055 284.868 114.624C276.408 115.194 268.436 117.276 260.953 120.87C253.469 124.465 246.699 129.479 240.643 135.913C234.719 142.029 230.094 149.062 226.767 157.012C222.907 166.233 221.421 175.141 222.309 183.734C223.329 192.009 225.704 199.729 229.431 206.895C233.476 214.194 238.398 220.738 244.196 226.528C249.994 232.318 255.807 237.18 261.634 241.114C273.74 248.797 284.652 257.101 294.369 266.027C304.087 274.952 311.682 284.484 317.155 294.623C322.946 304.894 326.229 315.798 327.006 327.334C328.101 339.004 325.854 351.516 320.264 364.872Z" fill="white"/>
<path d="M469.729 175.182C464.138 188.538 456.43 200.26 446.602 210.347C436.774 220.434 425.863 228.199 413.869 233.643C401.874 239.086 389.181 242.181 375.788 242.929C362.529 243.358 349.38 240.844 336.343 235.387C323.941 230.197 312.364 223.482 301.611 215.245C290.991 206.689 281.777 198.348 273.967 190.221C264.834 180.793 256.603 170.994 249.274 160.827L273.898 134.137C282.632 144.519 291.381 153.973 300.144 162.499C307.769 170.175 316.004 177.733 324.849 185.172C333.826 192.293 342.29 197.517 350.24 200.844C358.508 204.305 366.964 205.976 375.609 205.857C384.387 205.421 392.518 203.405 400.001 199.811C407.803 196.35 414.732 191.402 420.788 184.968C427.163 178.667 432.213 171.065 435.94 162.161C439.667 153.257 440.728 144.919 439.122 137.147C437.517 129.375 434.175 122.183 429.094 115.572C424.464 108.777 418.64 102.602 411.622 97.0485C404.922 91.6282 398.181 86.7514 391.4 82.4182C380.115 75.4525 370.224 67.3886 361.726 58.2265C353.362 48.7463 346.802 38.5266 342.047 27.5673C337.609 16.7412 335.135 5.24195 334.624 -6.9303C334.565 -19.2875 337.263 -31.9849 342.72 -45.0226C348.31 -58.3783 355.953 -69.9408 365.647 -79.7101C375.342 -89.4794 386.12 -96.9267 397.981 -102.052C409.976 -107.495 422.444 -110.498 435.385 -111.061C448.778 -111.808 461.675 -109.586 474.076 -104.396C481.708 -101.201 489.259 -96.9198 496.728 -91.5513C504.33 -86.5008 511.323 -81.3319 517.705 -76.0447C524.908 -70.0402 531.978 -63.7177 538.915 -57.0772L514.845 -29.0342C508.729 -34.9573 502.48 -40.5626 496.098 -45.8498C490.536 -50.4197 484.432 -55.0302 477.783 -59.6815C471.586 -64.5176 465.307 -68.2666 458.947 -70.9286C450.998 -74.2561 442.793 -75.6349 434.333 -75.0651C425.873 -74.4954 417.901 -72.4133 410.417 -68.819C402.934 -65.2247 396.164 -60.2106 390.108 -53.7766C384.184 -47.6607 379.559 -40.6278 376.232 -32.6779C372.372 -23.4561 370.886 -14.5487 371.773 -5.9557C372.794 2.31936 375.168 10.0397 378.896 17.2054C382.941 24.5041 387.863 31.0486 393.661 36.8386C399.459 42.6287 405.272 47.4907 411.099 51.4247C423.205 59.1077 434.117 67.4119 443.834 76.3373C453.552 85.2628 461.147 94.7947 466.62 104.933C472.41 115.205 475.694 126.108 476.471 137.645C477.566 149.314 475.319 161.827 469.729 175.182Z" fill="white"/>
</g>
</svg>
